<?xml version="1.0"?>
<svg xmlns="http://www.w3.org/2000/svg" xmlns:xlink="http://www.w3.org/1999/xlink" xmlns:svgjs="http://svgjs.com/svgjs" version="1.1" width="512" height="512" x="0" y="0" viewBox="0 0 128 128" style="enable-background:new 0 0 512 512" xml:space="preserve" class=""><g><g xmlns="http://www.w3.org/2000/svg"><circle cx="66" cy="66" fill="#ffffff" r="58.5" data-original="#e6e7e8" style="" class=""/><g><circle cx="62" cy="62" fill="#ffffff" r="57.5" data-original="#6dc9f7" style="" class=""/><path d="m62 7.5c31.253 0 56.664 24.939 57.462 56 .013-.5.038-.997.038-1.5 0-31.756-25.744-57.5-57.5-57.5s-57.5 25.744-57.5 57.5c0 .503.025 1 .038 1.5.798-31.061 26.209-56 57.462-56z" fill="#ffffff" data-original="#ffffff" style="" class=""/><g><path d="m36.369 27.206c-5.056.011-9.155 4.099-9.155 9.155 0 2.827 1.283 5.353 3.296 7.032-1.283 1.09-2.1 2.713-2.1 4.528 0 1.389.48 2.664 1.279 3.676-4.372.453-7.781 4.147-7.781 8.639 0 4.797 3.935 8.648 8.686 9.311 9.701 1.352 17.841-3.953 21.489-15.595 5.276-16.834-6.56-26.767-15.714-26.746z" fill="#009fe3" data-original="#ffd7e5" style="" class=""/><g fill="#fa759e"><circle cx="38.753" cy="33.159" r="2.899" fill="#0281b7" data-original="#fa759e" style="" class=""/><circle cx="47.177" cy="41.379" r="2.899" fill="#0281b7" data-original="#fa759e" style="" class=""/><circle cx="32.715" cy="34.409" r="2.123" fill="#0281b7" data-original="#fa759e" style="" class=""/><circle cx="41.41" cy="39.129" r="2.123" fill="#0281b7" data-original="#fa759e" style="" class=""/><circle cx="36.389" cy="38.48" r="1.648" fill="#0281b7" data-original="#fa759e" style="" class=""/><circle cx="31.999" cy="39.129" r="1.407" fill="#0281b7" data-original="#fa759e" style="" class=""/><circle cx="44.858" cy="35.425" r="1.407" fill="#0281b7" data-original="#fa759e" style="" class=""/></g></g><g><path d="m74.383 39.597c-2.828-3.219-4.79-17.383-11.062-13.037s-3.253 37.164 4.543 39.507c6.746 2.028 6.124-5.136 7.901-7.901s7.655-3.037 10.247-.37c3.154 3.244 4.272 11.828 11.284 9.062s8.498-34.273 2.792-37.927-10.333 9.375-13.706 12.346c-3.109 2.739-8.961 1.776-11.999-1.68z" fill="#009fe3" data-original="#ffd7e5" style="" class=""/><g fill="#fa759e"><circle cx="69.631" cy="59.125" r="2.807" fill="#0281b7" data-original="#fa759e" style="" class=""/><circle cx="87.1" cy="48.157" r="3.166" fill="#0281b7" data-original="#fa759e" style="" class=""/><circle cx="96.283" cy="41.188" r="3.166" fill="#0281b7" data-original="#fa759e" style="" class=""/><circle cx="67.306" cy="44.354" r="4" fill="#0281b7" data-original="#fa759e" style="" class=""/><circle cx="74.238" cy="46.568" r="1.801" fill="#0281b7" data-original="#fa759e" style="" class=""/><circle cx="95.043" cy="49.206" r="2.318" fill="#0281b7" data-original="#fa759e" style="" class=""/><circle cx="79.88" cy="49.281" r="2.71" fill="#0281b7" data-original="#fa759e" style="" class=""/><circle cx="89.419" cy="54.461" r="2.318" fill="#0281b7" data-original="#fa759e" style="" class=""/><circle cx="68.416" cy="52.046" r="2.322" fill="#0281b7" data-original="#fa759e" style="" class=""/><circle cx="74.238" cy="52.66" r="1.8" fill="#0281b7" data-original="#fa759e" style="" class=""/><circle cx="93.565" cy="61.285" r="1.8" fill="#0281b7" data-original="#fa759e" style="" class=""/><circle cx="66.093" cy="36.22" r="1.8" fill="#0281b7" data-original="#fa759e" style="" class=""/><circle cx="97.362" cy="55.859" r="1.8" fill="#0281b7" data-original="#fa759e" style="" class=""/></g></g><g><g><path d="m101.17 79.118c-8.347-10.116-33.511.328-48.715 1.035-8.948.416-29.34-2.658-31.825.995-5.775 8.49 37.643 19.642 43.163 18.697s4.674-7.061 6.763-7.956 7.459-.597 8.553 1.392-1.492 5.172 2.785 6.564c5.926 1.93 29.731-8.055 19.276-20.727z" fill="#009fe3" data-original="#ffd7e5" style="" class=""/><g fill="#3a2c60"><path d="m62 3.5c-32.257 0-58.5 26.243-58.5 58.5s26.243 58.5 58.5 58.5c17.289 0 33.602-7.59 44.754-20.824.355-.422.302-1.053-.12-1.409-.424-.357-1.055-.302-1.409.12-10.772 12.782-26.527 20.113-43.225 20.113-31.154 0-56.5-25.346-56.5-56.5s25.346-56.5 56.5-56.5 56.5 25.346 56.5 56.5c0 7.588-1.479 14.951-4.395 21.884-.214.509.025 1.095.534 1.31.509.213 1.095-.024 1.31-.534 3.02-7.18 4.551-14.803 4.551-22.659 0-32.258-26.243-58.501-58.5-58.501z" fill="#ffffff" data-original="#3a2c60" style="" class=""/><path d="m113.715 87.187c-.495-.25-1.095-.055-1.345.437-1.325 2.6-2.866 5.117-4.579 7.48-.324.447-.225 1.073.223 1.396.178.128.383.19.586.19.31 0 .615-.143.811-.413 1.774-2.448 3.369-5.054 4.741-7.746.25-.491.055-1.093-.437-1.344z" fill="#ffffff" data-original="#3a2c60" style="" class=""/><path d="m27.156 47.001c-7.041 0-12.769 5.728-12.769 12.769v16.48c0 .552.447 1 1 1s1-.448 1-1v-16.479c0-5.938 4.831-10.769 10.769-10.769h.348c.102.652.286 1.284.568 1.878-4.175 1.113-7.164 4.899-7.164 9.355 0 5.114 4.104 9.542 9.549 10.301 1.028.144 2.036.214 3.023.214 9.071 0 16.262-5.984 19.558-16.501 2.419-7.716 1.534-14.977-2.49-20.443-3.454-4.69-8.873-7.601-14.15-7.601-.011 0-.021 0-.031 0-5.598.012-10.152 4.568-10.152 10.155 0 2.654 1.03 5.173 2.857 7.059-.867 1.015-1.402 2.26-1.579 3.583h-.337zm3.319 3.976c-.696-.882-1.064-1.939-1.064-3.056 0-1.451.637-2.823 1.747-3.766.225-.191.354-.472.353-.767s-.133-.575-.359-.764c-1.866-1.556-2.937-3.839-2.937-6.264 0-4.487 3.659-8.145 8.156-8.155h.026c4.584 0 9.504 2.662 12.54 6.787 2.573 3.495 5.042 9.568 2.193 18.659-3.387 10.806-10.815 16.24-20.397 14.904-4.46-.622-7.824-4.199-7.824-8.32 0-3.951 2.96-7.237 6.885-7.644.362-.038.676-.27.817-.605.142-.337.089-.723-.136-1.009z" fill="#ffffff" data-original="#3a2c60" style="" class=""/><path d="m67.577 67.024c1.945.585 3.509.531 4.781-.163 1.996-1.089 2.672-3.438 3.269-5.51.3-1.043.583-2.028.98-2.646.592-.92 1.917-1.567 3.546-1.73 2.036-.207 4.049.392 5.144 1.517.816.84 1.518 2.151 2.26 3.539 1.479 2.767 3.403 6.366 7.207 6.366.864 0 1.826-.186 2.901-.61 4.641-1.83 6.16-12.491 6.598-16.989.898-9.241.146-20.29-3.634-22.71-1.14-.73-2.334-.962-3.549-.688-3.225.728-5.828 4.911-8.126 8.601-1.191 1.913-2.316 3.719-3.231 4.525-1.099.968-2.695 1.436-4.501 1.322-2.342-.15-4.617-1.238-6.087-2.911-.754-.858-1.522-2.836-2.337-4.931-1.495-3.846-3.19-8.206-6.117-9.102-1.257-.385-2.577-.104-3.929.833-4.05 2.806-4.546 14.994-2.957 25.036.695 4.392 2.846 14.767 7.782 16.251zm-3.686-39.643c.835-.579 1.557-.764 2.204-.565 2 .612 3.574 4.661 4.839 7.915.918 2.362 1.711 4.402 2.699 5.526 1.813 2.063 4.602 3.404 7.461 3.587 2.347.151 4.451-.496 5.951-1.817 1.136-1 2.28-2.84 3.606-4.969 1.987-3.191 4.461-7.163 6.869-7.707.685-.154 1.347-.016 2.03.422 2.464 1.578 3.686 10.923 2.721 20.833-.8 8.22-2.945 14.378-5.341 15.322-3.87 1.526-5.456-.81-7.61-4.838-.811-1.516-1.576-2.948-2.59-3.991-1.333-1.372-3.484-2.163-5.777-2.163-.331 0-.665.017-1 .05-2.264.227-4.096 1.189-5.027 2.639-.557.865-.879 1.987-1.221 3.174-.512 1.779-1.041 3.618-2.305 4.307-.779.425-1.843.425-3.247.003-2.592-.779-5.098-6.529-6.383-14.648-1.67-10.557-.699-21.126 2.121-23.08z" fill="#ffffff" data-original="#3a2c60" style="" class=""/><path d="m81.584 100.796c.591.192 1.318.285 2.148.285 5.41 0 15.13-3.944 19.173-9.881 1.966-2.886 3.395-7.436-.964-12.718-6.139-7.441-20.026-4.611-33.457-1.874-5.881 1.199-11.436 2.331-16.076 2.546-2.917.135-7.093-.107-11.514-.365-11.894-.692-19.245-.917-21.092 1.796-.673.989-1.205 2.588.082 4.589 5.153 8.014 38.603 16.586 44.077 15.656 4.061-.695 5.2-3.892 5.955-6.006.312-.872.663-1.859 1.032-2.017 1.883-.806 6.554-.371 7.283.956.236.43.184 1.107.129 1.824-.124 1.616-.313 4.058 3.224 5.209zm-7.93-10.385c-1.38 0-2.665.204-3.492.559-1.172.502-1.637 1.804-2.129 3.183-.738 2.069-1.502 4.209-4.409 4.707-4.619.792-37.403-7.53-42.057-14.766-.746-1.16-.451-1.883-.11-2.383 1.341-1.972 12.161-1.341 19.321-.924 4.476.261 8.698.507 11.724.366 4.794-.223 10.423-1.37 16.382-2.584 12.851-2.619 26.142-5.327 31.515 1.187 2.865 3.472 3.152 6.944.854 10.32-4.325 6.35-15.713 9.905-19.049 8.82-2.041-.665-1.968-1.601-1.848-3.153.071-.932.153-1.989-.371-2.942-.935-1.702-3.795-2.39-6.331-2.39z" fill="#ffffff" data-original="#3a2c60" style="" class=""/></g></g><g fill="#fa759e"><circle cx="58.208" cy="86.072" r="2.807" fill="#0281b7" data-original="#fa759e" style="" class=""/><circle cx="62.384" cy="91.409" r="3.166" fill="#0281b7" data-original="#fa759e" style="" class=""/><circle cx="74.734" cy="84.271" r="3.166" fill="#0281b7" data-original="#fa759e" style="" class=""/><circle cx="43.927" cy="87.407" r="4" fill="#0281b7" data-original="#fa759e" style="" class=""/><circle cx="50.888" cy="85.755" r="1.801" fill="#0281b7" data-original="#fa759e" style="" class=""/><circle cx="85.266" cy="87.407" r="2.318" fill="#0281b7" data-original="#fa759e" style="" class=""/><circle cx="52.689" cy="91.242" r="2.71" fill="#0281b7" data-original="#fa759e" style="" class=""/><circle cx="93.53" cy="87.756" r="3.484" fill="#0281b7" data-original="#fa759e" style="" class=""/><circle cx="35.778" cy="85.755" r="2.322" fill="#0281b7" data-original="#fa759e" style="" class=""/><circle cx="66.292" cy="83.433" r="1.8" fill="#0281b7" data-original="#fa759e" style="" class=""/><circle cx="91.138" cy="80.543" r="2.346" fill="#0281b7" data-original="#fa759e" style="" class=""/><circle cx="28.542" cy="83.955" r="1.8" fill="#0281b7" data-original="#fa759e" style="" class=""/><circle cx="85.784" cy="93.943" r="1.8" fill="#0281b7" data-original="#fa759e" style="" class=""/><circle cx="82.183" cy="81.105" r="1.8" fill="#0281b7" data-original="#fa759e" style="" class=""/></g></g></g></g></g></svg>
