<?xml version="1.0"?>
<svg xmlns="http://www.w3.org/2000/svg" xmlns:xlink="http://www.w3.org/1999/xlink" xmlns:svgjs="http://svgjs.com/svgjs" version="1.1" width="512" height="512" x="0" y="0" viewBox="0 0 512 512" style="enable-background:new 0 0 512 512" xml:space="preserve" class=""><g><g xmlns="http://www.w3.org/2000/svg" id="Beauty_Hand_Cream-2" data-name="Beauty Hand Cream"><g id="Outline"><path d="M284.09,227.59A95.267,95.267,0,0,0,351.99,256h.03a95.267,95.267,0,0,0,67.89-28.41A97.088,97.088,0,0,0,448,159.11a76.6,76.6,0,0,0-4.16-23.04,180.763,180.763,0,0,0-10.44-24.86c-10.48-20.91-26.35-45.52-47.17-73.16C371.34,18.3,359.39,4.33,358.08,2.8l-.02-.03a8,8,0,0,0-12.12.01l-.03.03c-2.38,2.78-23.94,28.04-45.52,59.27a8,8,0,0,0,13.17,9.09c11.4-16.5,22.91-31.4,30.56-40.99,2.67-3.36,5.33-6.63,7.88-9.73,8.64,10.48,25.47,31.54,41.5,55.18,11.51,16.98,20.61,32.36,27.06,45.72,7.45,15.3,11.52,28.71,11.44,37.76a80.872,80.872,0,0,1-23.46,57.23,79.386,79.386,0,0,1-113.08,0A80.848,80.848,0,0,1,272,159.11c-.06-8.31,3.38-20.39,9.68-34.03a8.005,8.005,0,0,0-3.94-10.6,7.841,7.841,0,0,0-3.33-.73,8,8,0,0,0-7.27,4.67c-7.55,16.57-11.09,29.5-11.14,40.69a97.088,97.088,0,0,0,28.09,68.48Z" fill="#ffffff" data-original="#000000" style=""/><path d="M285.42,100.37a8,8,0,1,0-2.73-10.99.01.01,0,0,1-.01.01A8.015,8.015,0,0,0,285.42,100.37Z" fill="#ffffff" data-original="#000000" style=""/><path d="M384.007,213.774a7.961,7.961,0,0,0,4.624-1.477A65.277,65.277,0,0,0,416,159.111a8,8,0,0,0-16,0,49.25,49.25,0,0,1-20.631,40.139,8,8,0,0,0,4.638,14.524Z" fill="#ffffff" data-original="#000000" style=""/><circle cx="352" cy="216" r="8" fill="#ffffff" data-original="#000000" style=""/><path d="M316.312,368.625,246.265,384.19a8,8,0,1,0,3.47,15.62l72-16a8.018,8.018,0,0,0,3.472-1.736l56-48q.233-.2.45-.417l32-32a8,8,0,0,0,0-11.314,41.991,41.991,0,0,0-58.817-.489l-53.983,38.56-43.535,7.255C242.216,327.866,163.308,288,128,288a8,8,0,0,0,0,16c28.527,0,99.381,33.985,124.275,47.08a7.993,7.993,0,0,0,5.04.811l48-8a8,8,0,0,0,3.335-1.381l56-40a8.11,8.11,0,0,0,1.007-.853,25.99,25.99,0,0,1,30.137-4.765l-25.233,25.233Z" fill="#ffffff" data-original="#000000" style=""/><path d="M503.155,404.422a54.169,54.169,0,0,0-59.814-28.748,8,8,0,1,0,3.352,15.644,38.182,38.182,0,0,1,36.17,11.555l-124.7,29.34a8,8,0,1,0,3.666,15.574l136-32a8,8,0,0,0,5.322-11.365Z" fill="#ffffff" data-original="#000000" style=""/><path d="M150.4,265.19c23.16,5.35,43.52,15.11,60.54,29,5.86,4.79,16.42,12.86,32.29,24.66a7.868,7.868,0,0,0,4.76,1.58,8,8,0,0,0,4.79-14.42c-10.64-7.91-24.78-18.53-31.72-24.21-18.93-15.47-41.5-26.3-67.06-32.2a7.855,7.855,0,0,0-1.81-.21,8,8,0,0,0-1.79,15.8Z" fill="#ffffff" data-original="#000000" style=""/><path d="M8,280a7.864,7.864,0,0,0,2.49-.4l23.92-7.82a254.712,254.712,0,0,1,54.81-10.61,8.005,8.005,0,0,0-1.27-15.96,272.512,272.512,0,0,0-58.3,11.29L5.51,264.4A8,8,0,0,0,8,280Z" fill="#ffffff" data-original="#000000" style=""/><path d="M120.06,260.85c.16.01.33.02.51.02a8.073,8.073,0,1,0-.51-.02Z" fill="#ffffff" data-original="#000000" style=""/><path d="M432.589,453.1l-22.059-7.353a8,8,0,0,0-5.06,15.179l22.059,7.353a23.032,23.032,0,0,1,15.422,25.709L284.275,443.208l79.036-35.925c.153-.07.305-.145.454-.224l120-64A8,8,0,0,0,486.4,331.2a55.9,55.9,0,0,0-69.754-16.467,8,8,0,0,0,7.155,14.311,39.917,39.917,0,0,1,43.179,4.833L356.46,392.821,270.267,432H225.808L59.439,352.777A8.006,8.006,0,0,0,56,352H8a8,8,0,0,0,0,16H54.192l166.369,79.223A8.006,8.006,0,0,0,224,448h22.751l198.811,63.62a8,8,0,0,0,9.593-4.042A39.029,39.029,0,0,0,432.589,453.1Z" fill="#ffffff" data-original="#000000" style=""/></g></g></g></svg>
