<?xml version="1.0"?>
<svg xmlns="http://www.w3.org/2000/svg" xmlns:xlink="http://www.w3.org/1999/xlink" xmlns:svgjs="http://svgjs.com/svgjs" version="1.1" width="512" height="512" x="0" y="0" viewBox="0 0 512 512" style="enable-background:new 0 0 512 512" xml:space="preserve" class=""><g><g xmlns="http://www.w3.org/2000/svg" id="Beauty_Hand_Cream" data-name="Beauty Hand Cream"><g id="Outline"><path d="M184,240c33.227,0,65.737-13.015,94.42-24.5,4.342-1.738,8.443-3.38,12.479-4.949,12.588-4.895,30.851.636,36.869,11.166a28.11,28.11,0,0,1,2.049,22.847,19.731,19.731,0,0,1-11.481,12.181c-6.571,2.486-15.742,5.234-26.361,8.417C247.434,278.511,192,295.123,192,328a8,8,0,0,0,16,0c0-8.291,9.656-17.307,27.925-26.074,18.113-8.691,41.695-15.758,60.643-21.437,10.91-3.269,20.331-6.093,27.431-8.78a35.482,35.482,0,0,0,20.876-21.734,43.922,43.922,0,0,0-3.216-36.2c-10-17.491-36.422-25.968-56.558-18.139-4.11,1.6-8.248,3.254-12.628,5.008C245.132,211.594,214.143,224,184,224c-4.146,0-14.874-1.916-24.338-3.606C147.012,218.134,135.064,216,128,216c-46.27,0-80.782,15.963-102.578,47.446C8.791,287.47,0,320.857,0,360V504a8,8,0,0,0,16,0V360c0-58.393,19.431-128,112-128,5.646,0,17.973,2.2,28.848,4.144C168.432,238.213,178.436,240,184,240Z" fill="#ffffff" data-original="#000000" style="" class=""/><path d="M510.1,98.829A8,8,0,0,0,504,96a67.724,67.724,0,0,0-65.88,53.258l-13.4,62.53-76.7,69.028L293.8,296.308a8,8,0,1,0,4.4,15.384l56-16a7.991,7.991,0,0,0,3.154-1.746l80-72a8,8,0,0,0,2.47-4.27l13.943-65.065A51.7,51.7,0,0,1,494.4,112.916L472.53,244.156,347.965,368.721,173.382,409.01A48.005,48.005,0,0,0,136,456v16a8,8,0,0,0,16,0V456a32.079,32.079,0,0,1,24.979-31.4L353.8,383.8a8,8,0,0,0,3.858-2.138l128-128a8,8,0,0,0,2.234-4.342l24-144A8,8,0,0,0,510.1,98.829Z" fill="#ffffff" data-original="#000000" style="" class=""/><path d="M386.794,208.239a8,8,0,1,0,15.652-3.318l-12.733-60.054a51.694,51.694,0,0,1,20.919-52.813l4.326,16.612a8,8,0,1,0,15.484-4.032L423.5,77.984a8,8,0,0,0-11-5.289,67.716,67.716,0,0,0-38.437,75.491Z" fill="#ffffff" data-original="#000000" style="" class=""/><path d="M313.008,175.543a8,8,0,0,0,6.1-9.53,40.513,40.513,0,0,1,17.264-42.368l15.583,58.378A8,8,0,0,0,367.41,177.9l-18.14-67.96a8,8,0,0,0-10.993-5.241l-2.766,1.235a56.539,56.539,0,0,0-32.034,63.516A8,8,0,0,0,313.008,175.543Z" fill="#ffffff" data-original="#000000" style="" class=""/><path d="M57.412,214.281A8.116,8.116,0,0,0,59,214.123a8,8,0,0,0,6.265-9.421A64.518,64.518,0,0,1,64,192c0-3.842,5.111-24.592,29.14-32H104a8,8,0,0,0,0-16H95.658A27.379,27.379,0,0,1,90.9,122.507a28.633,28.633,0,0,1,14.309-19.654c16.933-9.353,56.942-34.437,62.738-65.289A38.792,38.792,0,0,0,166.048,16H192a64.006,64.006,0,0,1,64,64c0,15.929-5.465,21.65-17.439,34.185l-.276.29c-.053.055-.1.116-.147.172-.067.075-.139.143-.2.221-.183.218-18.69,21.925-55.5,29.287a8,8,0,1,0,3.138,15.69c30.975-6.195,50.766-21.365,59.492-29.457,6.776,5.462,12.976,13.69,17.817,23.764a97.474,97.474,0,0,1,7.079,20.371A8,8,0,1,0,285.563,171a112.048,112.048,0,0,0-8.263-23.771c-5.605-11.664-12.928-21.458-21.137-28.407C265.632,108.388,272,98.617,272,80A80.005,80.005,0,0,0,192,0H152a8,8,0,0,0-6.146,13.122c5.713,6.855,7.8,13.883,6.367,21.488-3.15,16.765-23.617,37.041-54.747,54.236a44.59,44.59,0,0,0-22.281,30.61A43.452,43.452,0,0,0,79.44,148.2C55.934,159.5,48,181.715,48,192a80.6,80.6,0,0,0,1.577,15.858A8,8,0,0,0,57.412,214.281Z" fill="#ffffff" data-original="#000000" style="" class=""/><path d="M220.422,87.155a7.993,7.993,0,0,0,10.733-3.577,33.869,33.869,0,0,0,1.327-27.8c-4.08-10.434-13.011-18.912-24.5-23.258a8,8,0,1,0-5.661,14.964c7.264,2.748,12.827,7.9,15.262,14.122a17.821,17.821,0,0,1-.736,14.818A8,8,0,0,0,220.422,87.155Z" fill="#ffffff" data-original="#000000" style="" class=""/><circle cx="152" cy="152" r="8" fill="#ffffff" data-original="#000000" style="" class=""/><circle cx="144" cy="504" r="8" fill="#ffffff" data-original="#000000" style="" class=""/></g></g></g></svg>
