<?xml version="1.0"?>
<svg xmlns="http://www.w3.org/2000/svg" xmlns:xlink="http://www.w3.org/1999/xlink" xmlns:svgjs="http://svgjs.com/svgjs" version="1.1" width="512" height="512" x="0" y="0" viewBox="0 0 479.978 479.978" style="enable-background:new 0 0 512 512" xml:space="preserve" class=""><g>
<g xmlns="http://www.w3.org/2000/svg">
	<g>
		<path d="M407.767,58.554h-0.016C329.633-19.537,203-19.515,124.909,58.603C93.977,89.545,74.045,129.776,68.167,173.13    L14.343,292.698c-1.812,4.03-0.013,8.765,4.017,10.577c1.026,0.461,2.138,0.701,3.263,0.703h44.72v88c0,4.418,3.582,8,8,8h88v72    c0,4.418,3.582,8,8,8h192c4.418,0,8-3.582,8-8V370.714c13.616-8.225,26.183-18.073,37.424-29.328    C485.865,263.283,485.865,136.658,407.767,58.554z M396.439,330.082c-11.345,11.353-24.157,21.139-38.096,29.096    c-2.483,1.433-4.008,4.085-4,6.952v97.848h-176v-72c0-4.418-3.582-8-8-8h-88v-88c0-4.418-3.582-8-8-8H33.999l49.24-109.36    c0.328-0.718,0.544-1.481,0.64-2.264C96.908,75.573,189.17,4.435,289.952,17.464c100.782,13.029,171.919,105.291,158.89,206.073    C443.628,263.867,425.201,301.334,396.439,330.082z" fill="#009fe3" data-original="#000000" style="" class=""/>
	</g>
</g>
<g xmlns="http://www.w3.org/2000/svg">
	<g>
		<path d="M428.327,176.082c-8.645-9.925-23.699-10.962-33.624-2.316c-3.148,2.743-5.521,6.264-6.88,10.212h-22.168l-21.656-21.656    c-3.178-3.07-8.242-2.982-11.312,0.196c-2.994,3.1-2.994,8.015,0,11.116l18.344,18.344l-26.344,26.344    c-1.5,1.5-2.344,3.534-2.344,5.656v128c0,4.418,3.582,8,8,8s8-3.582,8-8V227.29l27.312-27.312h22.072    c3.195,9.085,11.523,15.371,21.136,15.952c0.504,0,1.016,0.048,1.52,0.048c13.255-0.02,23.983-10.782,23.963-24.037    C434.337,186.099,432.197,180.46,428.327,176.082z M418.331,192.464c-0.133,2.113-1.098,4.088-2.683,5.491l-0.008,0.016    c-1.597,1.395-3.675,2.11-5.792,1.992c-4.409-0.279-7.758-4.08-7.479-8.49c0.267-4.21,3.756-7.49,7.974-7.495h0.504    C415.257,184.255,418.607,188.054,418.331,192.464z" fill="#009fe3" data-original="#000000" style="" class=""/>
	</g>
</g>
<g xmlns="http://www.w3.org/2000/svg">
	<g>
		<path d="M362.343,71.978c-13.255,0-24,10.745-24,24c0.013,3.569,0.834,7.089,2.4,10.296l-0.072,0.048l-10.328,10.344    l-10.344-10.344c-3.178-3.07-8.242-2.982-11.312,0.196c-2.995,3.1-2.995,8.016,0,11.116l10.344,10.344l-26.344,26.344    c-1.5,1.5-2.344,3.534-2.344,5.656v240c0,4.418,3.582,8,8,8s8-3.582,8-8V163.29l45.656-45.656l0.048-0.072    c3.206,1.572,6.726,2.398,10.296,2.416c13.255,0,24-10.745,24-24S375.598,71.978,362.343,71.978z M362.343,103.978    c-4.418,0-8-3.582-8-8s3.582-8,8-8s8,3.582,8,8S366.762,103.978,362.343,103.978z" fill="#009fe3" data-original="#000000" style="" class=""/>
	</g>
</g>
<g xmlns="http://www.w3.org/2000/svg">
	<g>
		<path d="M239.999,114.322l-32-32c-1.5-1.5-3.534-2.344-5.656-2.344h-17.472c-4.418-12.497-18.131-19.046-30.627-14.627    s-19.046,18.131-14.627,30.627s18.131,19.046,30.627,14.627c6.835-2.416,12.211-7.793,14.627-14.627h14.16l27.312,27.312v33.376    l-26.344-26.344c-3.178-3.069-8.243-2.981-11.312,0.197c-2.994,3.1-2.994,8.015,0,11.115l37.656,37.656v220.688    c0,4.418,3.582,8,8,8s8-3.582,8-8v-280C242.343,117.857,241.5,115.822,239.999,114.322z M162.343,95.978c-4.418,0-8-3.582-8-8    s3.582-8,8-8s8,3.582,8,8S166.762,95.978,162.343,95.978z" fill="#009fe3" data-original="#000000" style="" class=""/>
	</g>
</g>
<g xmlns="http://www.w3.org/2000/svg">
	<g>
		<path d="M207.999,202.322l-40-40l-0.072-0.048c1.572-3.206,2.398-6.726,2.416-10.296c0-13.255-10.745-24-24-24s-24,10.745-24,24    s10.745,24,24,24c3.569-0.014,7.089-0.834,10.296-2.4l0.048,0.072l37.656,37.64v17.376l-18.344-18.344    c-3.178-3.069-8.243-2.981-11.312,0.197c-2.994,3.1-2.994,8.015,0,11.115l29.656,29.656v100.688c0,4.418,3.582,8,8,8s8-3.582,8-8    v-144C210.343,205.857,209.5,203.822,207.999,202.322z M146.343,159.978c-4.418,0-8-3.582-8-8s3.582-8,8-8s8,3.582,8,8    S150.762,159.978,146.343,159.978z" fill="#009fe3" data-original="#000000" style="" class=""/>
	</g>
</g>
<g xmlns="http://www.w3.org/2000/svg">
	<g>
		<path d="M307.999,78.322l-20-20l-0.056-0.048c1.566-3.207,2.387-6.727,2.4-10.296c0-13.255-10.745-24-24-24s-24,10.745-24,24    s10.745,24,24,24c3.569-0.014,7.089-0.834,10.296-2.4l0.048,0.072l14.344,14.328l-30.344,30.344c-1.5,1.5-2.344,3.534-2.344,5.656    v104c0,4.418,3.582,8,8,8s8-3.582,8-8V123.29l33.656-33.656C311.122,86.51,311.122,81.446,307.999,78.322z M266.343,55.978    c-4.418,0-8-3.582-8-8s3.582-8,8-8s8,3.582,8,8S270.762,55.978,266.343,55.978z" fill="#009fe3" data-original="#000000" style="" class=""/>
	</g>
</g>
<g xmlns="http://www.w3.org/2000/svg">
	<g>
		<path d="M266.343,247.978c-4.418,0-8,3.582-8,8v168c0,4.418,3.582,8,8,8s8-3.582,8-8v-168    C274.343,251.56,270.762,247.978,266.343,247.978z" fill="#009fe3" data-original="#000000" style="" class=""/>
	</g>
</g>
<g xmlns="http://www.w3.org/2000/svg">
</g>
<g xmlns="http://www.w3.org/2000/svg">
</g>
<g xmlns="http://www.w3.org/2000/svg">
</g>
<g xmlns="http://www.w3.org/2000/svg">
</g>
<g xmlns="http://www.w3.org/2000/svg">
</g>
<g xmlns="http://www.w3.org/2000/svg">
</g>
<g xmlns="http://www.w3.org/2000/svg">
</g>
<g xmlns="http://www.w3.org/2000/svg">
</g>
<g xmlns="http://www.w3.org/2000/svg">
</g>
<g xmlns="http://www.w3.org/2000/svg">
</g>
<g xmlns="http://www.w3.org/2000/svg">
</g>
<g xmlns="http://www.w3.org/2000/svg">
</g>
<g xmlns="http://www.w3.org/2000/svg">
</g>
<g xmlns="http://www.w3.org/2000/svg">
</g>
<g xmlns="http://www.w3.org/2000/svg">
</g>
</g></svg>
