<?xml version="1.0"?>
<svg xmlns="http://www.w3.org/2000/svg" xmlns:xlink="http://www.w3.org/1999/xlink" xmlns:svgjs="http://svgjs.com/svgjs" version="1.1" width="512" height="512" x="0" y="0" viewBox="0 0 488 488" style="enable-background:new 0 0 512 512" xml:space="preserve" class=""><g>
<g xmlns="http://www.w3.org/2000/svg">
	<g>
		<path d="M427.98,129.72c0.464-15.288-5.152-29.752-15.784-40.712c-0.296-0.304-0.624-0.568-0.928-0.872    c0.456-2.68,0.736-5.4,0.736-8.136c0-26.472-21.528-48-48-48c-0.24,0-0.472,0.056-0.712,0.056C351.94,12.464,330.908,0,308.004,0    C296.66,0,285.796,3.104,276.1,8.72C266.652,3.208,255.708,0,244.004,0c-23.944,0-44.832,13.24-55.808,32.768    C185.5,32.304,182.772,32,180.004,32c-26.472,0-48,21.528-48,48c0,0.656,0.152,1.312,0.176,1.968    c-11.496,7.976-20.016,20.112-22.928,34.072c-3.52,16.888,0.584,34.12,11.272,47.264c2.592,3.184,5.496,6.024,8.632,8.528    c-8.848,13.04-15.656,27.32-20.208,42.48l-3.616,12.048c-8.12,27.088-22.984,51.976-42.992,71.984    c-3.128,3.128-3.128,8.184,0,11.312l3.744,3.744c21.872,21.864,33.92,50.944,33.92,81.872c0,29.072,23.656,52.728,52.728,52.728    c8.696,0,17.344-2.176,25-6.296l18.272-9.84V488h152v-67.184c0-11.904,3.704-23.296,10.712-32.936l23.68-32.568    c19.368-26.632,29.608-58.112,29.608-91.048v-5.48c0-27.808-7.456-54.776-21.48-78.536    C411.756,172.352,427.284,152.704,427.98,129.72z M396.004,258.792v5.48c0,29.528-9.176,57.76-26.544,81.632l-23.68,32.568    c-9.008,12.384-13.776,27.032-13.776,42.344V472h-120v-48.752l15.224-8.2l-7.592-14.096l-49.496,26.656    c-5.328,2.88-11.352,4.392-17.408,4.392c-20.248,0-36.728-16.48-36.728-36.728c0-34.352-13.056-66.704-36.832-91.376    c19.104-20.816,33.376-45.872,41.496-72.944l3.616-12.048c4.112-13.712,10.272-26.624,18.04-38.024l0.768-1    c6.568,2.64,13.624,4.12,20.912,4.12h56c13.232,0,24,10.768,24,24v15.024l-3.592,14.36l-18.904-11.336l-31.456,31.456    l11.336,18.904l-21.384,5.352v44.488l21.384,5.352l-11.336,18.904l31.456,31.456l18.904-11.336L245.764,392h44.488l5.352-21.384    l18.904,11.336l31.456-31.456l-11.336-18.904l21.376-5.352v-44.48l-21.384-5.352l11.336-18.904L314.5,226.048l-18.904,11.336    l-3.592-14.36V208c0-13.232,10.768-24,24-24h53.984c1.344,0,2.664-0.104,3.992-0.192    C388.372,206.168,396.004,232.056,396.004,258.792z M318.316,279.56c0.976,1.992,1.832,4.048,2.576,6.168l1.416,4.088    l17.696,4.424v19.512l-17.696,4.424l-1.416,4.088c-0.744,2.128-1.6,4.176-2.576,6.168l-1.904,3.904l9.408,15.672l-13.8,13.8    l-15.672-9.408l-3.904,1.904c-1.992,0.976-4.048,1.832-6.168,2.576l-4.088,1.416L277.764,376h-19.52l-4.424-17.696l-4.088-1.416    c-2.128-0.744-4.176-1.6-6.168-2.576l-3.904-1.904l-15.672,9.408l-13.8-13.8l9.408-15.672l-1.904-3.904    c-0.976-1.992-1.832-4.048-2.576-6.168l-1.416-4.088l-17.696-4.424v-19.52l17.696-4.424l1.416-4.088    c0.744-2.128,1.6-4.176,2.576-6.168l1.904-3.904l-9.408-15.672l13.8-13.8l15.672,9.408l3.904-1.904    c1.992-0.976,4.048-1.832,6.168-2.576l4.088-1.416L258.244,232h19.512l4.424,17.696l4.088,1.416    c2.128,0.744,4.176,1.6,6.168,2.576l3.904,1.904l15.672-9.408l13.8,13.8l-9.408,15.672L318.316,279.56z M369.988,168h-53.984    c-22.056,0-40,17.944-40,40v8h-16v-8c0-22.056-17.944-40-40-40h-56c-12.096,0-23.416-5.392-31.056-14.792    c-7.64-9.4-10.568-21.744-8.04-33.904c3.144-15.048,15.352-27.256,30.4-30.4l-3.264-15.656c-1.184,0.248-2.304,0.672-3.456,1    C151.308,59.344,164.324,48,180.004,48c0.696,0,1.376,0.112,2.064,0.152c-1.296,5.08-2.064,10.368-2.064,15.848h16    c0-26.472,21.528-48,48-48s48,21.528,48,48h16c0-17.224-6.872-32.856-17.984-44.368C295.7,17.328,301.74,16,308.004,16    c15.304,0,29.48,7.448,38.44,19.448c-3.96,1.56-7.768,3.536-11.248,6.16l9.608,12.784c5.568-4.184,12.208-6.392,19.2-6.392    c16.728,0,30.336,12.936,31.728,29.304C388.404,73.872,380.364,72,372.004,72v16c10.912,0,21.112,4.312,28.712,12.152    c7.6,7.832,11.6,18.16,11.264,29.088C411.34,150.608,392.5,168,369.988,168z" fill="#009fe3" data-original="#000000" style=""/>
	</g>
</g>
<g xmlns="http://www.w3.org/2000/svg">
	<g>
		<path d="M268.004,264c-22.056,0-40,17.944-40,40c0,22.056,17.944,40,40,40c22.056,0,40-17.944,40-40    C308.004,281.944,290.06,264,268.004,264z M268.004,328c-13.232,0-24-10.768-24-24s10.768-24,24-24s24,10.768,24,24    S281.236,328,268.004,328z" fill="#009fe3" data-original="#000000" style=""/>
	</g>
</g>
<g xmlns="http://www.w3.org/2000/svg">
	<g>
		<path d="M372.004,104c-11.704,0-21.44,8.432-23.544,19.528l-59.424,9.144c-3.792-7-10.888-11.856-19.232-12.488l-12.128-44.496    C263.9,71.344,268.004,64.152,268.004,56c0-13.232-10.768-24-24-24s-24,10.768-24,24c0,3.248,0.664,6.352,1.84,9.176    l-46.464,41.816c-3.4-1.848-7.24-2.992-11.376-2.992c-13.232,0-24,10.768-24,24s10.768,24,24,24s24-10.768,24-24    c0-3.248-0.664-6.352-1.84-9.184L232.628,77c2.896,1.576,6.128,2.56,9.584,2.816l12.128,44.496    c-6.232,4.344-10.336,11.536-10.336,19.688c0,13.232,10.768,24,24,24c11.704,0,21.44-8.432,23.544-19.528l59.424-9.144    c4.064,7.504,11.912,12.672,21.032,12.672c13.232,0,24-10.768,24-24S385.236,104,372.004,104z M164.004,136c-4.416,0-8-3.584-8-8    s3.584-8,8-8s8,3.584,8,8S168.42,136,164.004,136z M244.004,64c-4.416,0-8-3.584-8-8s3.584-8,8-8s8,3.584,8,8    S248.42,64,244.004,64z M268.004,152c-4.416,0-8-3.584-8-8s3.584-8,8-8c4.416,0,8,3.584,8,8S272.42,152,268.004,152z M372.004,136    c-4.416,0-8-3.584-8-8s3.584-8,8-8c4.416,0,8,3.584,8,8S376.42,136,372.004,136z" fill="#009fe3" data-original="#000000" style=""/>
	</g>
</g>
<g xmlns="http://www.w3.org/2000/svg">
	<g>
		<rect x="308.004" y="88" width="16" height="16" fill="#009fe3" data-original="#000000" style=""/>
	</g>
</g>
<g xmlns="http://www.w3.org/2000/svg">
	<g>
		<rect x="204.004" y="128" width="16" height="16" fill="#009fe3" data-original="#000000" style=""/>
	</g>
</g>
<g xmlns="http://www.w3.org/2000/svg">
</g>
<g xmlns="http://www.w3.org/2000/svg">
</g>
<g xmlns="http://www.w3.org/2000/svg">
</g>
<g xmlns="http://www.w3.org/2000/svg">
</g>
<g xmlns="http://www.w3.org/2000/svg">
</g>
<g xmlns="http://www.w3.org/2000/svg">
</g>
<g xmlns="http://www.w3.org/2000/svg">
</g>
<g xmlns="http://www.w3.org/2000/svg">
</g>
<g xmlns="http://www.w3.org/2000/svg">
</g>
<g xmlns="http://www.w3.org/2000/svg">
</g>
<g xmlns="http://www.w3.org/2000/svg">
</g>
<g xmlns="http://www.w3.org/2000/svg">
</g>
<g xmlns="http://www.w3.org/2000/svg">
</g>
<g xmlns="http://www.w3.org/2000/svg">
</g>
<g xmlns="http://www.w3.org/2000/svg">
</g>
</g></svg>
