<?xml version="1.0"?>
<svg xmlns="http://www.w3.org/2000/svg" xmlns:xlink="http://www.w3.org/1999/xlink" xmlns:svgjs="http://svgjs.com/svgjs" version="1.1" width="512" height="512" x="0" y="0" viewBox="0 0 512 512" style="enable-background:new 0 0 512 512" xml:space="preserve" class=""><g><g xmlns="http://www.w3.org/2000/svg" id="Solid"><g><path d="m61.3964 338.082a80.7124 80.7124 0 0 0 -11.3142 11.3142l112.5214 112.5218a80.7124 80.7124 0 0 0 11.3142-11.3142z" fill="#ffffff" data-original="#000000" style="" class=""/><path d="m32 400a79.9822 79.9822 0 0 0 116.9846 70.926l-107.9104-107.9109a79.5123 79.5123 0 0 0 -9.0742 36.9849z" fill="#ffffff" data-original="#000000" style="" class=""/><path d="m182.9258 436.9849a79.9822 79.9822 0 0 0 -107.9104-107.9109z" fill="#ffffff" data-original="#000000" style="" class=""/><path d="m264 392h-56.33q.328 3.9573.33 8a95.86 95.86 0 0 1 -35.5406 74.5177 61.719 61.719 0 0 0 25.5406 5.4823h4a62.07 62.07 0 0 0 62-62z" fill="#ffffff" data-original="#000000" style="" class=""/><path d="m264 376v-16h-64.735a95.25 95.25 0 0 1 5.6979 16z" fill="#ffffff" data-original="#000000" style="" class=""/><path d="m258 128h204a2.002 2.002 0 0 0 2-2v-82a12.0137 12.0137 0 0 0 -12-12h-184a12.0137 12.0137 0 0 0 -12 12v82a2.002 2.002 0 0 0 2 2zm174-80h16v64h-16zm-32 0h16v64h-16zm-32 0h16v64h-16zm-32 0h16v64h-16zm-32 0h16v64h-16zm-32 0h16v64h-16z" fill="#ffffff" data-original="#000000" style="" class=""/><path d="m458 184h-196a22.0248 22.0248 0 0 0 -22 22v27.8979a78.2851 78.2851 0 0 1 9.2784 6.1021h230.7216v-34a22.0248 22.0248 0 0 0 -22-22z" fill="#ffffff" data-original="#000000" style="" class=""/><path d="m280 302v116a78.1485 78.1485 0 0 1 -1.2588 14h201.2588v-176h-215.0432a77.5857 77.5857 0 0 1 15.0432 46zm176 106h-96v-16h96zm-160-56h144v-56h-144v-16h152a8 8 0 0 1 8 8v72a8 8 0 0 1 -8 8h-152zm0 40h48v16h-48z" fill="#ffffff" data-original="#000000" style="" class=""/><path d="m280 144h160v24h-160z" fill="#ffffff" data-original="#000000" style="" class=""/><path d="m255.03 475.15a31.7259 31.7259 0 0 0 16.97 4.85h176a32.0361 32.0361 0 0 0 32-32h-206a78.3292 78.3292 0 0 1 -18.97 27.15z" fill="#ffffff" data-original="#000000" style="" class=""/><path d="m264 302a62.07 62.07 0 0 0 -62-62h-4a62.07 62.07 0 0 0 -62 62v5.0371a96.2958 96.2958 0 0 1 53.9328 36.9629h74.0672z" fill="#ffffff" data-original="#000000" style="" class=""/><path d="m168 192 14.142-25.858 25.858-14.142-25.858-14.142-14.142-25.858-14.142 25.858-25.858 14.142 25.858 14.142z" fill="#ffffff" data-original="#000000" style="" class=""/><path d="m70.101 125.899 9.899-18.1 18.101-9.9-18.101-9.899-9.899-18.101-9.9 18.101-18.1 9.899 18.1 9.9z" fill="#ffffff" data-original="#000000" style="" class=""/></g></g></g></svg>
