<svg width="367" height="480" xmlns="http://www.w3.org/2000/svg">

 <g>
  <title>Layer 1</title>
  <g stroke="null" id="svg_1">
   <path stroke="null" id="svg_2" fill="#c4d9e9" d="m330.32635,313.67969c0.01153,0.02344 0.02306,0.04687 0.03074,0.0664c1.67136,3.80469 5.21772,6.03516 8.97925,6.03516c1.34478,0 2.71644,-0.28516 4.03816,-0.88281c5.03329,-2.27344 7.20798,-8.10547 4.95645,-13.27735c-2.2477,-5.17187 -7.95721,-7.45703 -12.99819,-5.20312c-5.04098,2.25781 -7.23873,8.08203 -5.00641,13.26172zm0,0"/>
   <path stroke="null" id="svg_3" fill="#c4d9e9" d="m357.46389,342.82422c-0.84529,-5.45313 -5.88242,-9.17969 -11.24999,-8.3125c-5.36373,0.85937 -9.02536,5.98047 -8.17622,11.4375c2.20542,14.20703 2.81249,28.6875 1.79815,43.03516c-2.35143,33.26171 -18.8883,63.61718 -45.37266,83.28906l-6.65087,4.9375c-13.02893,9.67578 -28.44004,14.78906 -44.57347,14.78906c-5.84016,0 -11.68416,-0.69141 -17.36295,-2.05469l-26.06555,-6.25781c-50.37906,-12.09375 -96.33189,-40.51562 -129.39411,-80.02734c-14.69645,-17.56641 -21.32426,-30.34375 -26.4152,-43.50391c0.40728,-1.33594 0.55328,-2.77734 0.36117,-4.25781c-0.05379,-0.42969 -4.89497,-43.6211 55.01661,-71.34766c41.08859,-19.01562 60.31117,-51.53515 67.00045,-65.55469c45.04608,6.32032 60.54939,19.21094 61.70205,20.22266c2.37833,2.5625 5.65958,3.39063 9.05609,2.60938c0.81839,-0.1875 1.6291,-0.36719 2.43597,-0.53907c31.51764,-6.72656 64.02659,10.33985 77.31295,40.5625c2.21695,5.04297 8.03406,7.30469 12.99436,5.05078c4.96029,-2.2539 7.18109,-8.16796 4.96798,-13.21093c-7.5269,-17.11328 -20.18313,-31.52344 -35.94003,-41.09766c0.00768,-0.03516 0.02305,-0.06641 0.03457,-0.10156c1.98259,-6.44141 2.9854,-13.16016 2.9854,-19.96485c0,-1.36328 -0.05379,-2.71484 -0.13063,-4.05859l6.82377,0c5.42904,0 9.83606,-4.47656 9.83606,-10s-4.40702,-10 -9.83606,-10l-11.11936,0c-2.52817,-6.63281 -6.05917,-12.76172 -10.42007,-18.17969l4.45312,-4.52734c3.84221,-3.90625 3.84221,-10.23828 0,-14.14453c-3.84221,-3.90235 -10.06659,-3.90235 -13.9088,0l-5.14857,5.23437c-7.97642,-5.38281 -17.17084,-9.04297 -27.06837,-10.45703c13.03278,-10.59765 30.15366,-15.61719 51.01687,-14.89453c2.66265,0.10156 5.2523,-0.92187 7.17341,-2.80469c1.91725,-1.88281 2.99692,-4.47656 2.99692,-7.1875l0,-38.09375c0,-5.20312 -3.9229,-9.53515 -9.02535,-9.96484c-1.59451,-0.13281 -20.01408,-1.55859 -43.96257,1.37109c-10.70824,-21.0664 -25.78123,-36.71484 -43.11728,-45.40234l6.96208,-10.56641c3.02382,-4.58984 1.81352,-10.80078 -2.70107,-13.87109c-4.51076,-3.07422 -10.61986,-1.84766 -13.64368,2.74219l-9.9667,15.1289c-4.24948,-0.79687 -8.57965,-1.22265 -12.96361,-1.22265c-2.52818,0 -5.04483,0.14453 -7.53842,0.41406l0,-12.04297c0,-5.52344 -4.40317,-10 -9.83606,-10s-9.83606,4.47656 -9.83606,10l0,17.10156c-9.22899,3.82032 -17.97002,9.58985 -25.95412,17.23047c-5.97464,5.71485 -11.3499,12.32422 -16.06429,19.65625c-3.68852,-7.39844 -11.2423,-12.48828 -19.94491,-12.48828l-26.69952,0c-12.32581,0 -22.35398,10.19531 -22.35398,22.72656l0,102.22266c-4.94877,3.91016 -9.7208,8.49219 -14.28534,13.78516c-21.56249,25.0039 -25.85424,57.76953 -25.65828,80.85156c0.22285,26.10937 6.43186,52.72656 16.24487,69.79297c1.48309,4.03906 2.81634,7.93359 4.11116,11.71093c6.61245,19.27344 12.85604,37.48047 35.06786,64.02735c35.75945,42.73828 85.4277,73.46875 139.86028,86.53515l26.06172,6.25782c7.16188,1.71875 14.52355,2.58984 21.88523,2.58984c20.33297,0 39.75918,-6.44531 56.17311,-18.63672l6.65087,-4.9375c31.16801,-23.14844 50.62881,-58.86719 53.3952,-98.00781c1.12192,-15.86719 0.44954,-31.87891 -1.99411,-47.59375l0.00001,0zm-120.03064,-121.49219c-3.96516,-2.80469 -10.72361,-6.80078 -21.28585,-10.80859c0.81455,-9.625 3.56173,-27.76172 12.7984,-44.20703c2.39369,-0.38282 4.83734,-0.58594 7.27715,-0.58594c25.38163,0 46.03352,20.99609 46.03352,46.80078c0,3.97266 -0.49565,7.89453 -1.4562,11.69531c-13.96259,-4.60156 -28.91648,-5.63672 -43.36703,-2.89453l0.00001,0zm49.4915,-128.27734l0,18.5c-24.3673,1.07422 -44.46974,9.34765 -59.86163,24.65234c-21.61628,21.50391 -28.13651,51.375 -30.09219,68.34766c-9.40958,-2.38672 -20.58272,-4.53906 -33.80377,-6.14453c-2.98924,-2.81641 -5.96696,-5.47266 -8.93314,-7.98047c0.01536,-0.24219 0.03457,-0.48047 0.03457,-0.72656c0,-26.85938 8.53739,-48.48438 25.37011,-64.26954c32.0133,-30.01953 85.98482,-32.58984 107.28603,-32.3789zm-108.74607,-51.42578c4.92956,0 9.78611,0.73828 14.51202,2.14062c0.00385,0 0.01153,0.00391 0.01537,0.00391c15.67622,4.65625 29.87703,16.7539 40.30863,34.52734c-22.865,5.01172 -47.60499,14.53906 -66.65467,32.375c-18.13907,16.98047 -28.57452,39.04297 -31.13342,65.71094c-8.04943,-5.07813 -16.01433,-8.98047 -23.86781,-11.6875l0,-57.82422c0.16906,-0.40234 0.3266,-0.8125 0.44955,-1.24219c10.84656,-38.28125 37.51918,-64.0039 66.37033,-64.0039zm-118.55523,32.59765c0,-1.5039 1.20261,-2.72656 2.68186,-2.72656l26.69952,0c1.47925,0 2.68186,1.22266 2.68186,2.72656l0,86.16797c-3.29661,-0.29297 -6.56634,-0.37109 -9.81684,-0.22265c-7.69595,0.34765 -15.1191,1.94921 -22.2464,4.76953l0,-90.71485zm-19.16495,129.19532c12.71387,-14.7461 26.94158,-22.57422 42.28737,-23.26954c19.56837,-0.89062 42.08373,9.92188 65.30604,31.3125c-6.00538,11.98047 -22.71515,39.09766 -56.82244,54.88282c-37.64213,17.41797 -53.71026,41.05078 -60.56476,57.80468c-0.11527,0.28516 -0.22285,0.5625 -0.33811,0.84375c-12.43339,-28.0039 -19.11884,-87.65625 10.13191,-121.57421zm0,0"/>
   <path stroke="null" id="svg_4" fill="#c4d9e9" d="m124.74121,402.16797c-4.18032,-3.52734 -10.38164,-2.9375 -13.85117,1.3125c-3.46568,4.25 -2.88934,10.55469 1.29098,14.07812c26.6073,22.44532 58.4746,38.57813 92.15157,46.66407c0.76076,0.18359 1.52152,0.26953 2.27075,0.26953c4.45696,0 8.49512,-3.10156 9.56325,-7.70313c1.24872,-5.375 -2.02484,-10.76172 -7.31172,-12.03125c-30.74153,-7.3789 -59.82705,-22.10937 -84.11367,-42.58984zm0,0"/>
   <path stroke="null" id="svg_5" fill="#c4d9e9" d="m86.4267,376.63672c-4.10732,3.61719 -4.57223,9.90234 -1.01819,14.07422c1.948,2.375 4.74513,3.59765 7.56532,3.59765c2.22079,0 4.45312,-0.75781 6.2897,-2.3164c4.17264,-3.53516 4.73745,-9.83985 1.26024,-14.08203l-0.1998,-0.23828c-3.55788,-4.17579 -9.79379,-4.65235 -13.89727,-1.03516zm0,0"/>
  </g>
 </g>
</svg>