<svg width="498.688" height="498.688" xmlns="http://www.w3.org/2000/svg">

 <g>
  <title>Layer 1</title>
  <g id="svg_1">
   <g id="svg_2">
    <g id="svg_3">
     <path id="svg_4" fill="#c4d9e9" d="m266.688,185.344c-44.112,0 -80,35.888 -80,80s35.888,80 80,80s80,-35.888 80,-80s-35.888,-80 -80,-80zm0,16c19.112,0 36.256,8.472 47.992,21.8l-20.52,34.2l-5.224,0l-8,-32l-32,0l-4.944,-19.768c7.064,-2.688 14.696,-4.232 22.696,-4.232zm-64,64c0,-21.392 10.592,-40.32 26.768,-51.952l6.984,27.952l32,0l4,16l-19.168,0l-16,40l-25.92,0c-5.48,-9.424 -8.664,-20.336 -8.664,-32zm64,64c-16.168,0 -30.912,-6.072 -42.192,-16l23.608,0l6.4,-16l24.184,0l18.272,24.36c-9.016,4.872 -19.328,7.64 -30.272,7.64zm43.264,-16.976l-23.264,-31.024l-25.784,0l3.2,-8l39.112,0l21.232,-35.384c3.96,8.32 6.24,17.576 6.24,27.384c0,18.6 -8.024,35.32 -20.736,47.024z"/>
    </g>
   </g>
   <g id="svg_5">
    <g id="svg_6">
     <path id="svg_7" fill="#c4d9e9" d="m488.056,435.408l-94.056,-94.064l14.344,-14.344l-11.312,-11.312l-14.344,14.344l-15.52,-15.52c7.304,-14.872 11.52,-31.512 11.52,-49.168c0,-34.352 -15.576,-65.104 -40,-85.664l0,-50.336c0,-70.576 -57.424,-128 -128,-128s-128,57.424 -128,128l0,80c0,21.208 16.648,38.448 37.528,39.752c6.416,18.312 18.304,34.36 34.472,46.016l0,20.2l-72.32,20.656c-23.856,6.824 -42.288,25.104 -49.296,48.912l-33.072,112.464l429.384,0l-7.504,-25.496l14.872,14.872c6.848,6.848 15.952,10.624 25.648,10.624c20.008,0 36.288,-16.272 36.288,-36.28c0,-9.688 -3.776,-18.808 -10.632,-25.656zm-116.68,-94.064l-28.688,28.688l-12.52,-12.52c11.216,-7.744 20.944,-17.472 28.688,-28.688l12.52,12.52zm-8.688,-76c0,52.936 -43.064,96 -96,96c-52.936,0 -96,-43.064 -96,-96c0,-52.936 43.064,-96 96,-96c52.936,0 96,43.064 96,96zm-264,-56c0,-10.416 6.712,-19.216 16,-22.528l0,30.528c0,5.064 0.528,10.024 1.296,14.928c-9.96,-2.92 -17.296,-12.04 -17.296,-22.928zm16,-80l0,40.808c-5.944,1.216 -11.328,3.856 -16,7.392l0,-48.2c0,-61.76 50.24,-112 112,-112s112,50.24 112,112l0,39.152c-5.152,-2.992 -10.568,-5.56 -16.2,-7.712c-0.976,-18.288 -7.616,-36.016 -19.088,-50.352l-19.568,-24.464l-13.656,11.384c-24.752,20.632 -56.136,31.992 -88.36,31.992l-51.128,0zm16,88l0,-72l35.128,0c35.96,0 70.984,-12.68 98.616,-35.704l1.112,-0.92l9.368,11.712c8.16,10.2 13.32,22.512 15.064,35.384c-7.52,-1.6 -15.304,-2.472 -23.288,-2.472c-61.76,0 -112,50.24 -112,112c0,3.168 0.216,6.288 0.472,9.392c-15.456,-14.936 -24.472,-35.432 -24.472,-57.392zm215.064,264l-7.128,-56.992l-15.872,1.984l6.872,55.008l-229.872,0l6.872,-55.008l-15.872,-1.984l-7.128,56.992l-62.248,0l27.04,-91.944c5.448,-18.52 19.784,-32.744 38.336,-38.04l83.936,-23.984l0,-4.64c19.592,32.648 55.232,54.608 96,54.608c17.648,0 34.296,-4.216 49.168,-11.52l15.52,15.52l-14.344,14.344l11.312,11.312l14.344,-14.344l55.888,55.888l9.424,32.8l-62.248,0zm116.648,0c-5.424,0 -10.512,-2.112 -14.344,-5.936l-94.056,-94.064l28.688,-28.688l94.056,94.064c3.832,3.832 5.944,8.928 5.944,14.344c0,11.176 -9.104,20.28 -20.288,20.28z"/>
    </g>
   </g>
   <g id="svg_8">
    <g id="svg_9">
     <rect id="svg_10" fill="#c4d9e9" height="16" width="16" y="449.344" x="450.688"/>
    </g>
   </g>
   <g id="svg_11"/>
   <g id="svg_12"/>
   <g id="svg_13"/>
   <g id="svg_14"/>
   <g id="svg_15"/>
   <g id="svg_16"/>
   <g id="svg_17"/>
   <g id="svg_18"/>
   <g id="svg_19"/>
   <g id="svg_20"/>
   <g id="svg_21"/>
   <g id="svg_22"/>
   <g id="svg_23"/>
   <g id="svg_24"/>
   <g id="svg_25"/>
  </g>
 </g>
</svg>