<?xml version="1.0" encoding="utf-8"?>
<svg version="1.1" id="Layer_1" x="0px" y="0px" viewBox="0 0 38.4 31.7" style="enable-background:new 0 0 38.4 31.7;" xmlns="http://www.w3.org/2000/svg">
  <style type="text/css">
	.st0{fill:#86BACE;}
</style>
  <g>
    <path class="st0" d="M22.9,22.5c-0.9-0.2-1.8,0-2.4,0.1c-0.4,0.1-0.8,0.2-1.3,0.2c-0.5,0-0.9-0.1-1.3-0.2c-0.4-0.1-0.9-0.2-1.5-0.2 c-0.3,0-0.6,0-0.9,0.1c-1.6,0.4-2.4,1.9-2.4,3.1c0,2.9,3.6,6.1,6.1,6.1c2.5,0,6.1-3.2,6.1-6.1C25.3,24.4,24.5,22.9,22.9,22.5z M19.2,30.1c-1.5,0-4.5-2.5-4.5-4.6c0-0.5,0.4-1.4,1.2-1.6c0.6-0.1,1.1,0,1.6,0.1c0.5,0.1,1,0.3,1.7,0.3c0.7,0,1.2-0.1,1.7-0.3 c0.6-0.2,1-0.3,1.6-0.1c0.8,0.2,1.2,1,1.2,1.6C23.8,27.7,20.8,30.1,19.2,30.1z" style="fill: rgb(196, 217, 233);"/>
    <path class="st0" d="M37.8,0c-0.2,0-0.4,0-0.6,0.1c-0.2,0.1-0.3,0.3-0.3,0.5C36,5,33.4,9.4,29.5,12.9C26,16.1,22.1,18,19.2,18 C13.6,18,3.4,10.2,1.5,0.6C1.5,0.3,1.1,0,0.8,0c0,0-0.1,0-0.1,0C0.2,0.1-0.1,0.5,0,0.9c0.7,3.5,2.4,7,4.9,10l0.1,0.1l0,0.1 C7,19.6,7.6,29.2,7.6,29.3c0,0.4,0.4,0.7,0.8,0.7c0.5,0,0.8-0.4,0.8-0.8c0-0.3-0.4-7.1-1.8-14.4l-0.3-1.4l1.1,0.9 c3.7,3.2,7.9,5.2,11.1,5.2c3.1,0,7.4-2,11.1-5.2l1.1-0.9l-0.3,1.4c-1.4,7.3-1.7,14.1-1.8,14.4c0,0.4,0.3,0.8,0.7,0.8c0,0,0,0,0,0 c0.5,0,0.8-0.3,0.8-0.7c0-0.1,0.5-9.7,2.6-18.2l0-0.1l0.1-0.1c2.5-3.1,4.2-6.5,4.9-10C38.5,0.5,38.2,0.1,37.8,0z" style="fill: rgb(196, 217, 233);"/>
  </g>
</svg>