<?xml version="1.0"?>
<svg xmlns="http://www.w3.org/2000/svg" xmlns:xlink="http://www.w3.org/1999/xlink" xmlns:svgjs="http://svgjs.com/svgjs" version="1.1" width="512" height="512" x="0" y="0" viewBox="0 0 512 512" style="enable-background:new 0 0 512 512" xml:space="preserve" class=""><g><linearGradient xmlns="http://www.w3.org/2000/svg" id="a" gradientUnits="userSpaceOnUse" x1="443" x2="443" y1="8" y2="489.578"><stop stop-opacity="1" stop-color="#00efd1" offset="0"/><stop stop-opacity="1" stop-color="#c4d9e9" offset="0"/></linearGradient><linearGradient xmlns="http://www.w3.org/2000/svg" xmlns:xlink="http://www.w3.org/1999/xlink" id="b" x1="429" x2="429" xlink:href="#a" y1="8" y2="489.578"/><linearGradient xmlns="http://www.w3.org/2000/svg" xmlns:xlink="http://www.w3.org/1999/xlink" id="c" x1="419" x2="419" xlink:href="#a" y1="8" y2="489.578"/><linearGradient xmlns="http://www.w3.org/2000/svg" xmlns:xlink="http://www.w3.org/1999/xlink" id="d" x1="412.252" x2="412.252" xlink:href="#a" y1="8" y2="489.578"/><linearGradient xmlns="http://www.w3.org/2000/svg" xmlns:xlink="http://www.w3.org/1999/xlink" id="e" x1="409.976" x2="409.976" xlink:href="#a" y1="8" y2="489.578"/><linearGradient xmlns="http://www.w3.org/2000/svg" xmlns:xlink="http://www.w3.org/1999/xlink" id="f" x1="399.049" x2="399.049" xlink:href="#a" y1="8" y2="489.578"/><linearGradient xmlns="http://www.w3.org/2000/svg" xmlns:xlink="http://www.w3.org/1999/xlink" id="g" x1="400.042" x2="400.042" xlink:href="#a" y1="8" y2="489.578"/><linearGradient xmlns="http://www.w3.org/2000/svg" xmlns:xlink="http://www.w3.org/1999/xlink" id="h" x1="375.341" x2="375.341" xlink:href="#a" y1="8" y2="489.578"/><linearGradient xmlns="http://www.w3.org/2000/svg" xmlns:xlink="http://www.w3.org/1999/xlink" id="i" x1="122.5" x2="122.5" xlink:href="#a" y1="8" y2="489.578"/><linearGradient xmlns="http://www.w3.org/2000/svg" xmlns:xlink="http://www.w3.org/1999/xlink" id="j" x1="210.5" x2="210.5" xlink:href="#a" y1="8" y2="489.578"/><linearGradient xmlns="http://www.w3.org/2000/svg" xmlns:xlink="http://www.w3.org/1999/xlink" id="k" x1="255.912" x2="255.912" xlink:href="#a" y1="8" y2="489.578"/><path xmlns="http://www.w3.org/2000/svg" d="m443 378.581c10 0 10-15.582 0-15.582s-10 15.582 0 15.582z" fill="url(#a)" data-original="url(#a)" style=""/><path xmlns="http://www.w3.org/2000/svg" d="m429 405.954c10 0 10-15.583 0-15.583s-10 15.583 0 15.583z" fill="url(#b)" data-original="url(#b)" style=""/><path xmlns="http://www.w3.org/2000/svg" d="m419 409.849c-10 0-10 15.583 0 15.583s10-15.583 0-15.583z" fill="url(#c)" data-original="url(#c)" style=""/><path xmlns="http://www.w3.org/2000/svg" d="m410.234 352.3c.572.1 1.766.155 1.766.155 10 0 11-15.582 0-15.582-9-.001-9.973 13.712-1.766 15.427z" fill="url(#d)" data-original="url(#d)" style=""/><path xmlns="http://www.w3.org/2000/svg" d="m410 381.853c10 0 10-15.582 0-15.582-6 0-8.1 4.934-7.427 9.245.571 3.376 2.427 6.337 7.427 6.337z" fill="url(#e)" data-original="url(#e)" style=""/><path xmlns="http://www.w3.org/2000/svg" d="m399.045 422h.053c9.972 0 9.972-15.373-.053-15.373a8 8 0 0 0 -3.272.571c-6.596 2.96-5.505 14.802 3.272 14.802z" fill="url(#f)" data-original="url(#f)" style=""/><path xmlns="http://www.w3.org/2000/svg" d="m400 436.443a8.16 8.16 0 0 0 -5.662 2.441c-3.738 4.363-1.338 13.141 5.662 13.141 10 0 10-15.582 0-15.582z" fill="url(#g)" data-original="url(#g)" style=""/><path xmlns="http://www.w3.org/2000/svg" d="m375.36 439.715a7.39 7.39 0 0 0 4.571-1.454c5.09-3.844 3.584-14.128-4.571-14.128-6.908 0-9.089 7.376-6.492 11.947a7.042 7.042 0 0 0 6.492 3.635z" fill="url(#h)" data-original="url(#h)" style=""/><path xmlns="http://www.w3.org/2000/svg" d="m148 156.948v-4.363a8 8 0 0 0 -16 0v4.363a9.363 9.363 0 0 1 -9.314 9.557 9.668 9.668 0 0 1 -9.686-9.557v-4.363a8 8 0 0 0 -16 0v4.363a25.569 25.569 0 0 0 7.67 18.071 25.045 25.045 0 0 0 17.923 7.486 25.458 25.458 0 0 0 25.407-25.557z" fill="url(#i)" data-original="url(#i)" style=""/><path xmlns="http://www.w3.org/2000/svg" d="m210.576 182.505a25.473 25.473 0 0 0 25.424-25.557v-4.363a8 8 0 0 0 -16 0v4.363a9.5 9.5 0 1 1 -19 0v-4.363a8 8 0 0 0 -16 0v4.363a25.574 25.574 0 0 0 25.576 25.557z" fill="url(#j)" data-original="url(#j)" style=""/><path xmlns="http://www.w3.org/2000/svg" d="m392.379 270.081c-.931-.058-1.83-.058-2.631-.058a119.31 119.31 0 0 0 -29.1 3.626 116.042 116.042 0 0 0 -64.3 42.653 77.854 77.854 0 0 0 -41.803-12.302h-42.545v-14.049a112.012 112.012 0 0 0 45.528-37.47 110.013 110.013 0 0 0 19.878-55.876c.183.012.346.028.532.028a28.566 28.566 0 0 0 20.187-48.77 28 28 0 0 0 -20.034-8.368c-.087 0-.091.01-.091.013v-45.508h16.385a8.038 8.038 0 0 0 8-8.044 78.064 78.064 0 0 0 -77.965-77.956h-72.043a42.592 42.592 0 0 0 -30.377 12.487 42.135 42.135 0 0 0 -5.837 7.254c-26.413 1.243-41.329 15.883-49.247 28.383a78.5 78.5 0 0 0 -10.88 28.532 7.8 7.8 0 0 0 -.036 1.081v53.769s-.176-.011-.246-.011a28.569 28.569 0 1 0 -.034 57.138c.166 0 .326-.015.489-.025a110.834 110.834 0 0 0 69.791 95.084v12.308h-42.548c-43.161 0-78.452 35.574-78.452 78.736v97.857a8.508 8.508 0 0 0 8.176 8.407h315.542a8.184 8.184 0 0 0 2.157-.506 116.2 116.2 0 0 0 58.873 15.783c64.556 0 117.076-52.572 117.076-117.128a117.1 117.1 0 0 0 -114.445-117.068zm-336.379-89.438s-.176-.01-.246-.01a12.568 12.568 0 0 1 -8.925-21.456 12.432 12.432 0 0 1 8.925-3.682c.07 0 .246-.009.246-.01zm249.092 151.248a100.5 100.5 0 0 1 49.522-39.605l-2.089 17.276a59.072 59.072 0 0 0 1.506 25.691c3.017 10.164 8.143 17.639 15.238 22.226 4.824 3.846 8.939 9.091 13.166 21.5a23.123 23.123 0 0 1 .144 2.557c0 5.53-2.311 10.537-6.906 14.918a31.875 31.875 0 0 1 -4.191 3.437c-4.376 3.029-12.51 3.361-21.123 3.895-1.885.116-3.8.209-5.739.209h-.788c-16.829 0-37.372 7.82-44.176 28.763a100.749 100.749 0 0 1 5.436-100.872zm-27-176.4a12.148 12.148 0 0 1 8.842 3.722 12.6 12.6 0 0 1 -8.821 21.416c-.088 0-.11.01-.11.013v-25.16s-.003.018.086.018zm-150-116.353c.01-.019.02-.048.029-.067a26.19 26.19 0 0 1 5.193-7.269 26.7 26.7 0 0 1 19.063-7.802h72.043a61.589 61.589 0 0 1 61.45 54h-133.493a5.187 5.187 0 0 1 -.813-.142c-.259-.04-.52-.133-.782-.147a26.886 26.886 0 0 1 -25.361-26.9 26.4 26.4 0 0 1 2.668-11.669zm-56.092 47.221c1-4.581 7.2-36.191 37.932-41.875a42.689 42.689 0 0 0 26.089 45.991c-24.354 26.025-52.021 29.276-64.021 29.225zm27.773 169.4a94.456 94.456 0 0 1 -27.773-67.126v-52.633h.048c16.759 0 52.661-5 82.22-42h107.732v94.633a95.432 95.432 0 0 1 -61.753 88.867 95.177 95.177 0 0 1 -63.432 1.134 95.034 95.034 0 0 1 -37.042-22.88zm59.227 217.241h-138v-90.264a62.409 62.409 0 0 1 59-62.162v21.5a36.583 36.583 0 0 0 -19.494 10.675 38.973 38.973 0 0 0 -11.506 27.961v44.1c0 4.418 3.18 8.191 7.6 8.191h12.62a8 8 0 1 0 0-16h-4.22v-36.291a23.228 23.228 0 0 1 6.7-16.717 22.742 22.742 0 0 1 16.115-6.993h.311a24.009 24.009 0 0 1 23.874 23.71v36.29h-8.135a8 8 0 0 0 0 16h15.79a8.466 8.466 0 0 0 8.345-8.191v-44.1a39.859 39.859 0 0 0 -32-38.771v-21.938h34.462l28.538 30.776zm-17-163.744v-12.587a109.651 109.651 0 0 0 24.948 2.858 113.956 113.956 0 0 0 29.052-3.853v13.383l-28.24 27.178zm33 163.744v-122.025l32.077-30.975h14.923v42.184a32.488 32.488 0 0 0 -24.5 31.3 32.218 32.218 0 1 0 55.163-22.85 34.576 34.576 0 0 0 -14.663-8.461v-42.173h16.545a61.989 61.989 0 0 1 33.065 9.7 117.188 117.188 0 0 0 7.656 126.427 8.66 8.66 0 0 0 2.734 3.854 120.145 120.145 0 0 0 11.74 13.019zm54.614-95.82a16.239 16.239 0 0 1 11.569 4.8 16.331 16.331 0 0 1 0 23.006 16.329 16.329 0 0 1 -23.106.033 16.314 16.314 0 0 1 11.536-27.843zm91.193 71.942-1.567 10.423a100.441 100.441 0 0 1 -7.651-8.367l2.018-7.794c.069-.264.123-.7.164-.971 3.149-20.638 23.805-22.413 30.061-22.413h1.091c.2 0 .408.164.611.148 1.962-.15 3.9-.185 5.814-.3 10.9-.675 21.2-1.269 29.2-6.812a47.069 47.069 0 0 0 6.2-5.05c7.739-7.377 11.83-16.516 11.83-26.453a38.886 38.886 0 0 0 -.392-5.489 7.949 7.949 0 0 0 -.33-1.395c-4.846-14.538-10.358-23.229-19.025-30a8.178 8.178 0 0 0 -.686-.48c-3.894-2.433-6.847-6.963-8.773-13.45a43.26 43.26 0 0 1 -1.012-18.864c.013-.082.025-.165.035-.248l2.9-23.89a109.348 109.348 0 0 1 12.705-1.517v8.011c-2 11.352.4 20.545 5.911 26.978 5.121 5.976 12.7 8.816 22.535 8.816h.869c.082 0 .165.188.248.188 3.966 0 8.324 1.748 13.632 4.232a46.784 46.784 0 0 1 22.639 62.051l-17.846 34.36a49.989 49.989 0 0 1 -30.239 25.054 45.762 45.762 0 0 1 -12.957 2.11h-.966a22.7 22.7 0 0 1 -20.912-14.192 24.218 24.218 0 0 0 -18.736-14.875 24.15 24.15 0 0 0 -27.371 20.189zm68.941 39.053a100.377 100.377 0 0 1 -56.237-17.105 8.056 8.056 0 0 0 .417-1.6l2.7-17.945a8.113 8.113 0 0 1 9.2-6.757 7.733 7.733 0 0 1 3.69 1.644l.093.074a7.593 7.593 0 0 1 2.426 3.2 38.846 38.846 0 0 0 35.789 24.314h1.091c.081 0 .162.05.243.047a67.343 67.343 0 0 0 17.181-2.805 65.914 65.914 0 0 0 39.849-33.042l17.92-34.483c.051-.1.1-.191.146-.289a62.988 62.988 0 0 0 -30.292-83.6c-6.4-3-13.4-5.825-20.856-5.825h-.662c-4.955 0-8.452-.96-10.4-3.228-2.446-2.854-3.2-8.064-2.154-14.842a6.8 6.8 0 0 0 .1-1.13v-8.236a101.545 101.545 0 0 1 61.931 29.79 101.067 101.067 0 0 1 -72.183 171.821z" fill="url(#k)" data-original="url(#k)" style="" class=""/></g></svg>
