<svg width="184" height="184" xmlns="http://www.w3.org/2000/svg">

 <g>
  <title>Layer 1</title>
  <path fill="#c4d9e9" id="svg_1" d="m160.324,38.56l-3.574,0l0,-5.678c0,-1.381 -1.119,-2.5 -2.5,-2.5l-14,0c-1.381,0 -2.5,1.119 -2.5,2.5l0,5.678l-12.417,0l0,-6.341c0,-9.694 -7.887,-17.581 -17.581,-17.581l-31.505,0c-9.694,0 -17.581,7.887 -17.581,17.581l0,6.341l-12.416,0l0,-5.678c0,-1.381 -1.119,-2.5 -2.5,-2.5l-14,0c-1.381,0 -2.5,1.119 -2.5,2.5l0,5.678l-3.574,0c-13.076,0 -23.676,10.6 -23.676,23.676l0,83.45c0,13.076 10.6,23.676 23.676,23.676l136.648,0c13.076,0 23.676,-10.6 23.676,-23.676l0,-83.45c0,-13.076 -10.6,-23.676 -23.676,-23.676zm-91.658,-6.341c0,-4.18 3.401,-7.581 7.581,-7.581l31.505,0c4.18,0 7.581,3.401 7.581,7.581l0,6.341l-46.667,0l0,-6.341zm23.334,114.387c-23.552,0 -42.645,-19.093 -42.645,-42.645s19.093,-42.645 42.645,-42.645s42.645,19.093 42.645,42.645s-19.093,42.645 -42.645,42.645zm32.015,-32.172c0,0.663 -0.262,1.299 -0.73,1.769c-0.469,0.469 -1.104,0.733 -1.767,0.734l-16.515,0.015l0,16.514c0,1.381 -1.119,2.5 -2.5,2.5l-21.006,0c-1.381,0 -2.5,-1.119 -2.5,-2.5l0,-16.49l-16.49,0.015c-0.001,0 -0.001,0 -0.002,0c-0.662,0 -1.297,-0.263 -1.766,-0.73c-0.469,-0.469 -0.733,-1.104 -0.734,-1.767l-0.019,-21.005c-0.001,-1.381 1.117,-2.501 2.498,-2.502l16.514,-0.015l0,-16.516c0,-1.381 1.119,-2.5 2.5,-2.5l21.005,0c1.381,0 2.5,1.119 2.5,2.5l0,16.49l16.49,-0.015c0.001,0 0.002,0 0.002,0c1.38,0 2.499,1.118 2.5,2.498l0.02,21.005z"/>
  <g id="svg_2"/>
  <g id="svg_3"/>
  <g id="svg_4"/>
  <g id="svg_5"/>
  <g id="svg_6"/>
  <g id="svg_7"/>
  <g id="svg_8"/>
  <g id="svg_9"/>
  <g id="svg_10"/>
  <g id="svg_11"/>
  <g id="svg_12"/>
  <g id="svg_13"/>
  <g id="svg_14"/>
  <g id="svg_15"/>
  <g id="svg_16"/>
 </g>
</svg>