<svg width="488" height="488" xmlns="http://www.w3.org/2000/svg">

 <g>
  <title>Layer 1</title>
  <g id="svg_1">
   <g id="svg_2">
    <g id="svg_3">
     <path id="svg_4" fill="#c4d9e9" d="m427.98,129.72c0.464,-15.288 -5.152,-29.752 -15.784,-40.712c-0.296,-0.304 -0.624,-0.568 -0.928,-0.872c0.456,-2.68 0.736,-5.4 0.736,-8.136c0,-26.472 -21.528,-48 -48,-48c-0.24,0 -0.472,0.056 -0.712,0.056c-11.352,-19.592 -32.384,-32.056 -55.288,-32.056c-11.344,0 -22.208,3.104 -31.904,8.72c-9.448,-5.512 -20.392,-8.72 -32.096,-8.72c-23.944,0 -44.832,13.24 -55.808,32.768c-2.696,-0.464 -5.424,-0.768 -8.192,-0.768c-26.472,0 -48,21.528 -48,48c0,0.656 0.152,1.312 0.176,1.968c-11.496,7.976 -20.016,20.112 -22.928,34.072c-3.52,16.888 0.584,34.12 11.272,47.264c2.592,3.184 5.496,6.024 8.632,8.528c-8.848,13.04 -15.656,27.32 -20.208,42.48l-3.616,12.048c-8.12,27.088 -22.984,51.976 -42.992,71.984c-3.128,3.128 -3.128,8.184 0,11.312l3.744,3.744c21.872,21.864 33.92,50.944 33.92,81.872c0,29.072 23.656,52.728 52.728,52.728c8.696,0 17.344,-2.176 25,-6.296l18.272,-9.84l0,56.136l152,0l0,-67.184c0,-11.904 3.704,-23.296 10.712,-32.936l23.68,-32.568c19.368,-26.632 29.608,-58.112 29.608,-91.048l0,-5.48c0,-27.808 -7.456,-54.776 -21.48,-78.536c21.232,-7.896 36.76,-27.544 37.456,-50.528zm-31.976,129.072l0,5.48c0,29.528 -9.176,57.76 -26.544,81.632l-23.68,32.568c-9.008,12.384 -13.776,27.032 -13.776,42.344l0,51.184l-120,0l0,-48.752l15.224,-8.2l-7.592,-14.096l-49.496,26.656c-5.328,2.88 -11.352,4.392 -17.408,4.392c-20.248,0 -36.728,-16.48 -36.728,-36.728c0,-34.352 -13.056,-66.704 -36.832,-91.376c19.104,-20.816 33.376,-45.872 41.496,-72.944l3.616,-12.048c4.112,-13.712 10.272,-26.624 18.04,-38.024l0.768,-1c6.568,2.64 13.624,4.12 20.912,4.12l56,0c13.232,0 24,10.768 24,24l0,15.024l-3.592,14.36l-18.904,-11.336l-31.456,31.456l11.336,18.904l-21.384,5.352l0,44.488l21.384,5.352l-11.336,18.904l31.456,31.456l18.904,-11.336l5.352,21.376l44.488,0l5.352,-21.384l18.904,11.336l31.456,-31.456l-11.336,-18.904l21.376,-5.352l0,-44.48l-21.384,-5.352l11.336,-18.904l-31.456,-31.456l-18.904,11.336l-3.592,-14.36l0,-15.024c0,-13.232 10.768,-24 24,-24l53.984,0c1.344,0 2.664,-0.104 3.992,-0.192c14.392,22.36 22.024,48.248 22.024,74.984zm-77.688,20.768c0.976,1.992 1.832,4.048 2.576,6.168l1.416,4.088l17.696,4.424l0,19.512l-17.696,4.424l-1.416,4.088c-0.744,2.128 -1.6,4.176 -2.576,6.168l-1.904,3.904l9.408,15.672l-13.8,13.8l-15.672,-9.408l-3.904,1.904c-1.992,0.976 -4.048,1.832 -6.168,2.576l-4.088,1.416l-4.424,17.704l-19.52,0l-4.424,-17.696l-4.088,-1.416c-2.128,-0.744 -4.176,-1.6 -6.168,-2.576l-3.904,-1.904l-15.672,9.408l-13.8,-13.8l9.408,-15.672l-1.904,-3.904c-0.976,-1.992 -1.832,-4.048 -2.576,-6.168l-1.416,-4.088l-17.696,-4.424l0,-19.52l17.696,-4.424l1.416,-4.088c0.744,-2.128 1.6,-4.176 2.576,-6.168l1.904,-3.904l-9.408,-15.672l13.8,-13.8l15.672,9.408l3.904,-1.904c1.992,-0.976 4.048,-1.832 6.168,-2.576l4.088,-1.416l4.424,-17.696l19.512,0l4.424,17.696l4.088,1.416c2.128,0.744 4.176,1.6 6.168,2.576l3.904,1.904l15.672,-9.408l13.8,13.8l-9.408,15.672l1.912,3.904zm51.672,-111.56l-53.984,0c-22.056,0 -40,17.944 -40,40l0,8l-16,0l0,-8c0,-22.056 -17.944,-40 -40,-40l-56,0c-12.096,0 -23.416,-5.392 -31.056,-14.792c-7.64,-9.4 -10.568,-21.744 -8.04,-33.904c3.144,-15.048 15.352,-27.256 30.4,-30.4l-3.264,-15.656c-1.184,0.248 -2.304,0.672 -3.456,1c2.72,-14.904 15.736,-26.248 31.416,-26.248c0.696,0 1.376,0.112 2.064,0.152c-1.296,5.08 -2.064,10.368 -2.064,15.848l16,0c0,-26.472 21.528,-48 48,-48s48,21.528 48,48l16,0c0,-17.224 -6.872,-32.856 -17.984,-44.368c5.68,-2.304 11.72,-3.632 17.984,-3.632c15.304,0 29.48,7.448 38.44,19.448c-3.96,1.56 -7.768,3.536 -11.248,6.16l9.608,12.784c5.568,-4.184 12.208,-6.392 19.2,-6.392c16.728,0 30.336,12.936 31.728,29.304c-7.328,-3.432 -15.368,-5.304 -23.728,-5.304l0,16c10.912,0 21.112,4.312 28.712,12.152c7.6,7.832 11.6,18.16 11.264,29.088c-0.64,21.368 -19.48,38.76 -41.992,38.76z"/>
    </g>
   </g>
   <g id="svg_5">
    <g id="svg_6">
     <path id="svg_7" fill="#c4d9e9" d="m268.004,264c-22.056,0 -40,17.944 -40,40c0,22.056 17.944,40 40,40c22.056,0 40,-17.944 40,-40c0,-22.056 -17.944,-40 -40,-40zm0,64c-13.232,0 -24,-10.768 -24,-24s10.768,-24 24,-24s24,10.768 24,24s-10.768,24 -24,24z"/>
    </g>
   </g>
   <g id="svg_8">
    <g id="svg_9">
     <path id="svg_10" fill="#c4d9e9" d="m372.004,104c-11.704,0 -21.44,8.432 -23.544,19.528l-59.424,9.144c-3.792,-7 -10.888,-11.856 -19.232,-12.488l-12.128,-44.496c6.224,-4.344 10.328,-11.536 10.328,-19.688c0,-13.232 -10.768,-24 -24,-24s-24,10.768 -24,24c0,3.248 0.664,6.352 1.84,9.176l-46.464,41.816c-3.4,-1.848 -7.24,-2.992 -11.376,-2.992c-13.232,0 -24,10.768 -24,24s10.768,24 24,24s24,-10.768 24,-24c0,-3.248 -0.664,-6.352 -1.84,-9.184l46.464,-41.816c2.896,1.576 6.128,2.56 9.584,2.816l12.128,44.496c-6.232,4.344 -10.336,11.536 -10.336,19.688c0,13.232 10.768,24 24,24c11.704,0 21.44,-8.432 23.544,-19.528l59.424,-9.144c4.064,7.504 11.912,12.672 21.032,12.672c13.232,0 24,-10.768 24,-24s-10.768,-24 -24,-24zm-208,32c-4.416,0 -8,-3.584 -8,-8s3.584,-8 8,-8s8,3.584 8,8s-3.584,8 -8,8zm80,-72c-4.416,0 -8,-3.584 -8,-8s3.584,-8 8,-8s8,3.584 8,8s-3.584,8 -8,8zm24,88c-4.416,0 -8,-3.584 -8,-8s3.584,-8 8,-8c4.416,0 8,3.584 8,8s-3.584,8 -8,8zm104,-16c-4.416,0 -8,-3.584 -8,-8s3.584,-8 8,-8c4.416,0 8,3.584 8,8s-3.584,8 -8,8z"/>
    </g>
   </g>
   <g id="svg_11">
    <g id="svg_12">
     <rect id="svg_13" fill="#c4d9e9" height="16" width="16" y="88" x="308.004"/>
    </g>
   </g>
   <g id="svg_14">
    <g id="svg_15">
     <rect id="svg_16" fill="#c4d9e9" height="16" width="16" y="128" x="204.004"/>
    </g>
   </g>
   <g id="svg_17"/>
   <g id="svg_18"/>
   <g id="svg_19"/>
   <g id="svg_20"/>
   <g id="svg_21"/>
   <g id="svg_22"/>
   <g id="svg_23"/>
   <g id="svg_24"/>
   <g id="svg_25"/>
   <g id="svg_26"/>
   <g id="svg_27"/>
   <g id="svg_28"/>
   <g id="svg_29"/>
   <g id="svg_30"/>
   <g id="svg_31"/>
  </g>
 </g>
</svg>