<svg width="64" height="64" xmlns="http://www.w3.org/2000/svg">

 <g>
  <title>Layer 1</title>
  <g id="svg_1">
   <g id="outline">
    <path id="svg_2" fill="#c4d9e9" d="m40.5,36.1l-0.885,1.8a6.153,6.153 0 0 0 2.529,0.548a5.254,5.254 0 0 0 2.366,-0.548l-0.895,-1.79a3.859,3.859 0 0 1 -3.115,-0.01z"/>
    <path id="svg_3" fill="#c4d9e9" d="m47.384,22.947l-0.638,-1.9c-0.15,0.051 -3.684,1.271 -3.684,4.949l2,0a3.438,3.438 0 0 1 2.322,-3.049z"/>
    <path id="svg_4" fill="#c4d9e9" d="m52,61.08c0.081,-1.023 2,-25.086 2,-29.08a17.089,17.089 0 0 1 0.955,-4.961c1.074,-3.588 2.186,-7.3 -2.179,-12.669c-4.047,-4.981 -11,-12 -11.066,-12.074a1,1 0 0 0 -0.71,-0.296l-31,0a1,1 0 0 0 -0.9,1.436c0.083,0.169 2.105,4.246 10.2,12.274c1.652,1.639 3.227,3.105 4.618,4.4c4.456,4.147 7.4,6.886 7.092,9.787c-1.064,10.009 1.879,30.387 2.005,31.25a1,1 0 0 0 0.985,0.853l17,0a1,1 0 0 0 1,-0.92zm-20.352,-57.08l12.478,12.477a3.728,3.728 0 0 0 -2.064,3.523l2,0a1.884,1.884 0 0 1 2,-2a4.352,4.352 0 0 1 3.3,1.152a3.469,3.469 0 0 1 0.889,2.406c0,1.353 -0.652,2.442 -1.192,2.442a2.9,2.9 0 0 0 -3,3c0,2.708 -2.8,3 -4,3s-4,-0.292 -4,-3a3.973,3.973 0 0 1 1.172,-2.828a1,1 0 0 0 0,-1.415l-18.783,-18.757l11.2,0zm15.1,32.946a4.6,4.6 0 0 0 -0.748,3.054l0,20l-7,0l0,-17.181c1.14,1.533 2.062,3.132 2.062,4.181l2,0c0,-3.217 -4.566,-7.952 -5.357,-8.747a3.6,3.6 0 0 1 -0.705,-2.253a2,2 0 0 1 2.532,-1.929a9.292,9.292 0 0 0 4.936,0a2,2 0 0 1 2.532,1.929a1.256,1.256 0 0 1 -0.248,0.946l-0.004,0zm1.252,23.054l0,-20c0,-1.34 0.193,-1.621 0.4,-1.918a3.156,3.156 0 0 0 0.6,-2.082a4,4 0 0 0 -5.063,-3.857a7.421,7.421 0 0 1 -3.874,0a4,4 0 0 0 -5.063,3.857a5.744,5.744 0 0 0 1.168,3.555a3.78,3.78 0 0 1 0.832,2.445l0,18l-2.13,0c-0.554,-4.032 -2.792,-21.269 -1.876,-29.895c0.414,-3.895 -2.821,-6.9 -7.718,-11.46c-1.38,-1.284 -2.942,-2.738 -4.572,-4.355a71.6,71.6 0 0 1 -8.92,-10.29l5.833,0l19.554,19.523a5.956,5.956 0 0 0 -1.109,3.477c0,3.038 2.356,5 6,5s6,-1.962 6,-5a0.91,0.91 0 0 1 1,-1c1.79,0 3.192,-1.951 3.192,-4.442a5.458,5.458 0 0 0 -1.434,-3.778a6.073,6.073 0 0 0 -4.334,-1.771l-12.009,-12.009l6.1,0c1.357,1.381 7.127,7.3 10.643,11.63c3.7,4.551 2.825,7.463 1.815,10.835a18.664,18.664 0 0 0 -1.035,5.535c0,3.482 -1.563,23.45 -1.924,28l-2.076,0z"/>
    <rect id="svg_5" fill="#c4d9e9" height="2" width="2" y="16" x="38"/>
    <rect id="svg_6" fill="#c4d9e9" height="2" width="2" y="49" x="41"/>
   </g>
  </g>
 </g>
</svg>