<svg width="512" height="512" xmlns="http://www.w3.org/2000/svg">
 <g>
  <title>Layer 1</title>
  <g stroke="null" id="svg_1">
   <path stroke="null" d="m512.95704,303.51563c-5.80078,-35.64063 -38.98828,-62.51563 -77.19531,-62.51563l-21.29688,0c-14.92968,-15.3125 -62.16796,-58.93359 -111.49609,-54.03516l0,-20.96484l75,0l0,-90l-75,0l0,-76l-90,0l0,76l-75,0l0,90l75,0l0,20.96484c-49.32422,-4.89453 -96.5625,38.72266 -111.49219,54.03516l-21.29687,0c-38.21094,0 -71.39453,26.875 -77.19141,62.51563c-6.79687,41.78515 22.3086,79.96093 62.85938,86.50781c7.6875,18.16015 30.03906,30.97656 57.12109,30.97656c33.64844,0 60,-19.76562 60,-45s-26.35156,-45 -60,-45c-25.90625,0 -47.47656,11.72656 -56.03125,28.63672c-21.85156,-5.41016 -38.35156,-26.63281 -34.33984,-51.30469c3.46093,-21.28125 23.91797,-37.33203 47.58203,-37.33203l14.74219,0c7.42578,26.02734 33.11328,29.77344 50.69531,32.67969c19.9414,3.29687 32.51562,6.22265 38.94531,19.04297c9.1875,18.32422 9.53125,31.77734 9.93359,47.35156c0.25782,10.13281 0.52735,20.60937 3.07422,32.94922c7.67578,37.18359 15.39844,41.85156 15.39844,75.92187l0,33.05469l90,0l-0.19922,-15c0,-62.44922 5.36719,-44.39844 15.60156,-93.97656c2.54688,-12.33985 2.81641,-22.81641 3.07422,-32.94532c0.39844,-15.57812 0.74219,-29.02734 9.9336,-47.35546c6.44921,-12.85938 19.01953,-15.77344 38.96093,-19.04688c16.91407,-2.77734 43.19532,-6.35547 50.6836,-32.67578l14.73437,0c23.66797,0 44.1211,16.05078 47.58594,37.33203c3.99609,24.57422 -12.39453,45.87109 -34.33984,51.30469c-8.55469,-16.91016 -30.125,-28.63672 -56.03516,-28.63672c-33.64453,0 -60,19.76562 -60,45s26.35547,45 60,45c27.08594,0 49.4375,-12.81641 57.125,-30.97656c40.57422,-6.55078 69.65234,-44.75 62.86328,-86.50782l0,0.00001zm-389.98829,57.48437c18.31641,0 30,8.88281 30,15s-11.68359,15 -30,15c-18.3125,0 -30,-8.88281 -30,-15s11.6875,-15 30,-15zm45,-225l0,-30l75,0l0,-76l30,0l0,76l75,0l0,30l-75,0l0,75l-30,0l0,-75l-75,0zm197.51172,138.07031c-19.89844,3.26953 -47.14453,7.74219 -60.91797,35.20703c-12.19141,24.3086 -12.67969,43.28907 -13.10547,60.03125c-0.23437,9.22266 -0.46094,17.9336 -2.46484,27.65235c-8.63672,41.83984 -14.96875,35.04687 -15.89844,85.03906l-30.125,0c0,-43.73438 -8.51562,-48.69531 -16.01953,-85.03906c-2.00391,-9.72266 -2.23047,-18.42969 -2.46484,-27.65235c-0.42969,-16.74609 -0.91407,-35.72265 -13.10547,-60.03515c-13.7461,-27.40625 -40.98047,-31.90625 -60.8711,-35.19141c-19.92187,-3.29297 -25.70703,-5.36328 -27.1289,-12.63281c17.47656,-17.98047 56.41797,-49.46485 89.58984,-44.19531l0,23.74609l90,0l0,-23.74219c33.18359,-5.27344 72.13281,26.22656 89.59766,44.19531c-1.41797,7.28516 -7.19141,9.35157 -27.08594,12.61719zm27.48828,116.92969c-18.3125,0 -30,-8.88281 -30,-15s11.6875,-15 30,-15c18.31641,0 30,8.88281 30,15s-11.68359,15 -30,15zm0,0" fill="#c4d9e9" id="svg_2"/>
  </g>
 </g>

</svg>