<svg width="512" height="512" xmlns="http://www.w3.org/2000/svg">

 <g>
  <title>Layer 1</title>
  <g id="svg_1">
   <path fill="#c4d9e9" id="svg_2" d="m181,0l0,76.82c0,35.2 -11.777,69.814 -34.043,100.093c-17.402,23.672 -22.266,43.477 -14.458,58.887c9.771,19.336 33.267,20.2 33.501,20.2c42.026,0 85.195,-14.209 85.269,-14.238c28.14,-9.316 54.492,-12.158 73.726,-14.224c24.932,-2.695 41.396,-4.468 47.695,-18.809c5.903,-13.389 -3.94,-26.777 -7.646,-31.816c-22.267,-30.278 -34.044,-64.892 -34.044,-100.093l0,-76.82l-150,0z"/>
   <path fill="#c4d9e9" id="svg_3" d="m331,512l0,-76.82c0,-35.2 11.777,-69.814 34.043,-100.093c17.402,-23.672 22.266,-43.477 14.458,-58.887c-9.771,-19.336 -33.267,-20.2 -33.501,-20.2c-42.026,0 -85.195,14.209 -85.269,14.238c-28.14,9.316 -54.492,12.158 -73.726,14.224c-24.932,2.695 -41.396,4.468 -47.695,18.809c-5.903,13.389 3.94,26.777 7.646,31.816c22.267,30.278 34.044,64.892 34.044,100.093l0,76.82l150,0z"/>
   <path fill="#c4d9e9" id="svg_4" d="m97.606,142.24c-23.95,33.311 -36.606,72.642 -36.606,113.76s12.656,80.449 36.606,113.76l24.346,-17.52c-20.244,-28.169 -30.952,-61.45 -30.952,-96.24s10.708,-68.071 30.952,-96.24l-24.346,-17.52z"/>
   <path fill="#c4d9e9" id="svg_5" d="m414.394,142.24l-24.346,17.52c20.244,28.169 30.952,61.45 30.952,96.24s-10.708,68.071 -30.952,96.24l24.346,17.52c23.95,-33.311 36.606,-72.642 36.606,-113.76s-12.656,-80.449 -36.606,-113.76z"/>
  </g>
 </g>
</svg>